<svg width="1024" height="1024" viewBox="0 0 1024 1024" fill="none" xmlns="http://www.w3.org/2000/svg">
  <!-- Transparent background for adaptive icon -->
  <defs>
    <linearGradient id="truckGradAdaptive" x1="0%" y1="0%" x2="0%" y2="100%">
      <stop offset="0%" style="stop-color:#ffffff;stop-opacity:1" />
      <stop offset="100%" style="stop-color:#f0fdf4;stop-opacity:1" />
    </linearGradient>
  </defs>
  
  <!-- Truck Body - centered for adaptive icon safe zone -->
  <path d="M180 580 L180 400 C180 375 195 360 220 360 L520 360 C545 360 560 375 560 400 L560 580 Z" fill="url(#truckGradAdaptive)"/>
  
  <!-- Truck Cabin -->
  <path d="M560 430 L560 580 L690 580 L690 490 C690 455 675 430 640 430 Z" fill="url(#truckGradAdaptive)"/>
  
  <!-- Cabin Window -->
  <path d="M575 448 L575 520 L655 520 L655 478 C655 460 645 448 625 448 Z" fill="#16a34a" opacity="0.8"/>
  
  <!-- Wheels -->
  <circle cx="275" cy="598" r="60" fill="#1f2937"/>
  <circle cx="275" cy="598" r="35" fill="#6b7280"/>
  <circle cx="275" cy="598" r="12" fill="#1f2937"/>
  
  <circle cx="620" cy="598" r="60" fill="#1f2937"/>
  <circle cx="620" cy="598" r="35" fill="#6b7280"/>
  <circle cx="620" cy="598" r="12" fill="#1f2937"/>
  
  <!-- Package boxes on truck -->
  <rect x="210" y="385" width="90" height="70" rx="7" fill="#fbbf24"/>
  <rect x="315" y="400" width="70" height="55" rx="5" fill="#f97316"/>
  <rect x="400" y="375" width="110" height="80" rx="8" fill="#3b82f6"/>
  
  <!-- Location pin -->
  <g transform="translate(680, 260)">
    <path d="M45 0 C20 0 0 20 0 45 C0 78.75 45 117 45 117 C45 117 90 78.75 90 45 C90 20 70 0 45 0 Z" fill="white"/>
    <circle cx="45" cy="45" r="22" fill="#16a34a"/>
  </g>
  
  <!-- Speed lines -->
  <rect x="90" y="420" width="55" height="7" rx="3.5" fill="white" opacity="0.8"/>
  <rect x="75" y="465" width="70" height="7" rx="3.5" fill="white" opacity="0.7"/>
  <rect x="90" y="510" width="45" height="7" rx="3.5" fill="white" opacity="0.6"/>
</svg>
